<?xml version="1.0" standalone="no"?>
<!DOCTYPE svg PUBLIC "-//W3C//DTD SVG 20010904//EN"
 "http://www.w3.org/TR/2001/REC-SVG-20010904/DTD/svg10.dtd">
<svg version="1.0" xmlns="http://www.w3.org/2000/svg"
 width="1360.000000pt" height="1360.000000pt" viewBox="0 0 1360.000000 1360.000000"
 preserveAspectRatio="xMidYMid meet">
<metadata>
Created by potrace 1.11, written by Peter Selinger 2001-2013
</metadata>
<g transform="translate(0.000000,1360.000000) scale(0.100000,-0.100000)"
fill="#000000" stroke="none">
<path d="M5921 11852 l-34 -3 7 -87 c4 -48 13 -124 20 -170 11 -75 10 -84 -6
-98 -15 -14 -23 -15 -70 -3 -67 17 -59 18 -97 -13 l-32 -28 40 -102 41 -102
-21 -22 c-20 -21 -22 -21 -75 -7 -62 16 -68 14 -89 -28 -15 -29 -15 -30 34
-90 27 -34 47 -67 44 -74 -2 -7 0 -16 6 -20 7 -4 11 -59 11 -149 l0 -143 50
-31 c48 -30 50 -33 50 -75 l0 -44 246 -152 c223 -137 274 -165 261 -143 -3 4
-30 120 -61 257 -31 138 -59 258 -62 268 -7 23 7 22 67 -8 29 -13 55 -22 59
-20 4 3 -15 77 -42 166 -27 88 -48 163 -45 165 2 2 24 -2 50 -10 25 -7 48 -12
50 -9 3 2 -51 133 -120 291 -69 158 -129 299 -135 315 -6 16 -17 27 -29 27
-13 0 -24 13 -34 38 -41 99 -48 107 -84 104z"/>
<path d="M4093 11330 c-13 -5 -23 -18 -23 -27 0 -36 71 -657 75 -662 3 -2 18
8 33 22 16 15 31 27 34 27 3 0 9 -43 13 -95 7 -96 15 -116 39 -96 9 8 15 -4
25 -52 17 -80 18 -82 45 -51 l22 27 23 -102 c13 -55 26 -101 30 -101 3 0 17
17 30 37 l24 37 17 -65 c34 -124 82 -274 90 -283 4 -4 11 1 15 13 3 12 10 21
14 21 4 0 20 -43 36 -95 15 -52 31 -95 35 -95 4 0 12 12 19 27 7 16 61 116
121 223 59 107 116 211 125 231 l17 35 -76 140 -76 140 16 84 c8 45 12 86 7
90 -4 4 -23 13 -42 20 -32 13 -35 12 -54 -11 l-20 -24 7 54 c4 30 9 66 12 80
4 21 0 28 -22 39 -40 18 -55 15 -85 -14 l-28 -26 -6 36 c-6 30 -11 36 -34 36
-41 0 -51 12 -59 76 l-7 59 -48 9 c-48 8 -49 8 -92 -34 l-42 -42 -7 28 c-4 15
-20 55 -36 90 -20 45 -33 62 -43 58 -11 -4 -23 15 -45 68 -31 75 -41 83 -79
68z"/>
<path d="M5415 10420 c-11 -5 -30 -9 -43 -9 -12 -1 -41 -10 -65 -20 -23 -11
-53 -22 -66 -26 -23 -7 -46 -23 -83 -57 -10 -10 -21 -18 -25 -18 -7 0 -97 -87
-142 -137 -26 -28 -101 -138 -101 -147 0 -4 -9 -17 -21 -29 -11 -12 -27 -37
-36 -54 -8 -18 -20 -33 -25 -33 -6 0 -4 -8 3 -17 8 -10 9 -14 2 -10 -7 5 -17
-5 -27 -25 -62 -138 -80 -289 -57 -488 13 -109 50 -290 70 -343 6 -15 13 -38
16 -50 12 -56 42 -157 48 -163 4 -4 7 -14 7 -22 0 -8 7 -20 15 -26 9 -6 18
-30 20 -53 4 -41 17 -77 75 -213 15 -36 33 -86 40 -113 11 -41 16 -47 33 -41
13 4 17 2 12 -5 -3 -6 -8 -25 -10 -41 -3 -22 0 -28 11 -23 9 3 14 -2 15 -13 1
-11 2 -26 3 -34 2 -8 3 -22 4 -31 1 -8 10 -24 20 -35 10 -10 24 -39 31 -64 17
-53 14 -37 40 -215 20 -139 28 -187 37 -215 3 -8 4 -16 2 -16 -2 -1 6 -11 16
-23 11 -12 14 -21 8 -21 -19 0 -14 -20 6 -21 9 0 12 -3 6 -5 -12 -5 5 -94 18
-94 5 0 8 -14 8 -31 0 -17 7 -58 16 -92 13 -49 13 -62 2 -69 -8 -5 -9 -11 -3
-15 6 -5 11 -21 12 -38 4 -79 10 -107 26 -125 11 -13 13 -20 4 -20 -8 0 -9 -2
-1 -8 6 -4 14 -20 17 -37 5 -28 22 -112 47 -229 5 -27 8 -51 5 -54 -2 -2 2
-11 10 -19 8 -8 15 -20 15 -26 0 -7 -4 -6 -10 3 -12 19 -13 5 -1 -18 5 -9 16
-32 23 -49 7 -18 17 -33 23 -33 5 0 4 -4 -4 -9 -10 -6 -10 -13 -2 -28 6 -12
12 -41 15 -65 2 -25 8 -54 14 -65 6 -11 11 -33 12 -49 1 -58 7 -109 13 -124 3
-8 10 -58 16 -110 12 -106 26 -162 66 -265 15 -38 35 -95 43 -125 9 -30 20
-56 24 -58 4 -2 8 -14 8 -26 0 -12 5 -27 11 -33 6 -6 13 -26 15 -45 6 -47 12
-60 25 -52 8 4 9 3 5 -4 -4 -6 0 -24 8 -40 8 -16 12 -33 8 -37 -4 -4 2 -6 13
-3 17 4 20 0 21 -26 0 -17 11 -62 23 -101 25 -76 61 -241 58 -259 -1 -6 4 -10
12 -8 12 3 12 1 0 -14 -10 -13 -11 -18 -2 -21 7 -2 9 -11 6 -20 -4 -11 -2 -14
5 -9 8 5 10 2 6 -8 -3 -9 -1 -16 5 -16 6 0 11 -15 11 -33 0 -18 4 -37 9 -42 6
-6 14 -35 20 -65 5 -30 15 -77 22 -105 6 -27 12 -58 12 -67 1 -10 5 -18 10
-18 5 0 7 -9 4 -20 -3 -11 -1 -23 4 -26 5 -3 9 -13 9 -23 0 -10 7 -24 15 -31
8 -7 15 -19 15 -27 0 -8 7 -21 16 -30 8 -9 13 -22 9 -31 -3 -8 0 -21 6 -28 10
-12 9 -13 -5 -8 -9 3 -20 20 -25 38 -7 23 -9 26 -10 9 -1 -12 10 -35 24 -51
14 -17 28 -44 31 -61 4 -17 10 -31 15 -31 4 0 8 -8 8 -17 0 -10 4 -37 10 -61
15 -59 24 -121 23 -156 -1 -17 6 -38 15 -48 9 -10 13 -21 9 -25 -4 -4 -12 -1
-17 7 -9 12 -9 10 -3 -5 4 -11 8 -33 8 -50 1 -19 9 -36 24 -46 12 -8 19 -19
15 -23 -4 -4 -1 -12 7 -17 10 -7 11 -12 4 -15 -8 -3 -5 -21 9 -57 17 -44 20
-73 19 -187 -1 -74 -6 -166 -11 -205 -13 -90 -14 -233 -1 -327 11 -83 31 -255
32 -278 2 -63 53 -230 93 -309 14 -25 31 -60 39 -78 9 -17 25 -38 36 -46 11
-7 18 -16 15 -19 -3 -2 13 -24 35 -48 22 -24 40 -46 40 -48 0 -11 137 -132
149 -132 4 0 20 -9 35 -21 18 -15 35 -19 54 -15 15 3 21 3 15 0 -23 -10 -14
-21 35 -42 68 -28 220 -45 353 -39 184 9 327 41 316 70 -3 8 7 12 30 11 28 -2
43 6 75 37 22 21 43 39 46 39 9 0 76 74 74 82 -1 3 10 17 24 30 13 13 31 37
39 53 16 32 37 67 46 75 24 22 86 265 93 366 6 83 -9 265 -23 273 -4 4 -11 29
-15 56 -7 43 -36 110 -56 125 -4 3 -10 22 -13 43 -3 20 -15 49 -25 62 -13 16
-18 33 -14 48 5 21 5 21 -12 4 -21 -21 -33 -23 -16 -2 7 8 8 15 3 15 -5 0 -16
18 -23 40 -7 21 -16 37 -21 35 -4 -3 -10 9 -14 26 -7 33 -35 90 -35 74 0 -5
-5 -2 -11 8 -5 9 -8 21 -5 25 3 5 -4 8 -16 8 -12 -1 -23 6 -25 14 -4 13 -3 13
5 1 9 -12 13 -13 27 -1 9 8 19 9 24 4 22 -23 68 -124 60 -130 -13 -8 -1 -24
14 -18 7 2 21 -12 31 -31 11 -20 32 -49 47 -64 15 -16 25 -32 22 -34 -3 -3 8
-23 23 -44 59 -79 155 -164 270 -239 66 -43 130 -87 144 -99 38 -34 201 -140
238 -154 17 -8 32 -20 32 -28 0 -10 6 -12 20 -8 12 4 31 -1 48 -13 76 -54 116
-64 308 -76 28 -2 66 -11 84 -20 38 -19 157 -22 240 -6 37 7 57 7 66 -1 10 -8
28 -6 68 5 30 9 66 16 80 16 14 0 47 9 74 19 26 11 88 27 138 37 49 9 95 20
103 24 10 6 19 -2 31 -24 8 -17 21 -30 29 -28 8 2 10 -4 6 -18 -5 -16 0 -23
22 -32 15 -6 36 -10 45 -9 12 1 16 -3 12 -12 -2 -7 2 -20 11 -27 8 -7 15 -9
15 -4 0 5 5 2 10 -6 9 -13 12 -13 21 3 13 22 44 23 35 1 -5 -13 -1 -15 19 -12
30 6 30 7 5 -42 -33 -65 -22 -181 16 -166 11 4 14 1 9 -13 -3 -10 1 -24 10
-31 8 -7 15 -9 15 -5 0 4 6 2 14 -4 7 -6 22 -8 32 -4 16 6 17 4 7 -8 -10 -12
-8 -17 7 -27 15 -9 19 -8 23 6 3 12 5 11 6 -5 1 -26 16 -31 25 -8 3 8 12 12
21 9 8 -3 12 -10 9 -15 -3 -5 2 -12 11 -16 10 -3 21 0 26 8 6 10 9 8 9 -9 0
-31 17 -62 35 -62 8 0 12 -6 9 -14 -8 -21 40 -49 68 -41 18 6 21 5 11 -5 -9
-10 -9 -16 2 -26 18 -18 23 -18 28 4 4 13 5 11 6 -5 1 -26 16 -31 25 -8 3 9
12 12 21 9 9 -4 14 -13 11 -20 -4 -9 2 -14 15 -14 18 0 20 5 15 32 -3 18 -3
28 0 21 3 -7 13 -9 22 -6 10 3 13 1 7 -4 -5 -4 -11 -15 -13 -25 -4 -26 34 -11
68 29 16 18 30 43 30 54 0 26 23 34 52 17 13 -7 37 -13 53 -14 70 -3 140 -17
176 -36 23 -12 50 -18 64 -15 14 2 29 -1 33 -7 4 -6 18 -12 32 -13 40 -3 94
-15 105 -23 12 -9 144 -6 165 4 9 3 51 8 95 9 44 2 91 9 104 16 13 7 38 11 57
8 20 -3 52 2 83 13 30 12 64 17 87 14 29 -3 43 1 60 17 15 14 29 19 44 14 21
-7 71 8 100 29 8 7 49 27 90 46 41 19 78 39 81 44 4 5 16 7 27 4 15 -4 29 6
56 38 22 26 42 41 50 38 16 -6 153 144 217 239 22 31 43 57 47 57 4 0 13 15
21 33 7 17 21 43 29 57 9 14 17 30 17 35 3 48 19 95 31 95 9 0 13 4 9 9 -3 5
2 31 11 57 11 34 13 53 6 69 -7 15 -6 42 4 88 13 62 12 69 -11 136 -14 39 -25
80 -25 91 0 12 -15 55 -34 95 -20 42 -32 83 -29 94 6 22 -9 38 -121 130 -36
30 -68 62 -71 71 -5 16 -108 100 -122 100 -4 0 -17 10 -29 21 -13 12 -38 24
-56 28 -21 4 -40 18 -53 38 -18 28 -36 42 -105 83 -14 8 -39 26 -55 38 -20 16
-37 21 -53 17 -17 -4 -31 0 -46 14 -11 10 -58 33 -103 50 -65 26 -94 31 -145
29 -95 -3 -113 19 -59 73 24 23 38 29 75 29 24 0 56 -4 70 -10 15 -5 28 -6 31
0 3 5 13 6 22 3 10 -4 14 -2 10 4 -9 15 18 24 31 11 7 -7 16 -6 29 1 11 5 29
7 41 4 18 -4 22 -13 22 -50 0 -54 16 -87 37 -79 11 5 13 2 9 -10 -7 -18 11
-47 24 -39 5 3 11 1 14 -4 3 -5 16 -7 29 -4 17 5 20 3 10 -7 -9 -10 -9 -16 2
-26 18 -18 23 -18 28 4 4 13 5 11 6 -5 1 -26 16 -31 25 -8 3 8 12 12 20 9 8
-3 12 -12 9 -20 -3 -9 2 -14 15 -14 11 0 23 6 25 13 3 6 6 2 6 -11 1 -32 19
-62 37 -62 8 0 12 -5 9 -10 -4 -6 -1 -18 6 -26 12 -14 14 -14 20 3 7 15 8 15
8 -6 1 -18 5 -22 22 -18 13 3 19 1 16 -6 -3 -11 15 -37 27 -37 2 0 7 8 9 18 4
13 5 11 6 -5 1 -26 16 -31 25 -8 3 8 12 12 20 9 8 -3 12 -12 9 -20 -3 -9 2
-14 16 -14 19 0 21 4 17 38 -3 20 -3 29 0 20 3 -10 12 -15 22 -12 10 4 13 2 7
-3 -5 -4 -11 -16 -13 -25 -2 -13 2 -16 15 -11 27 9 43 24 37 34 -3 5 2 9 10 9
24 0 40 40 40 105 -1 71 -22 120 -66 143 -16 10 -46 29 -65 44 -26 21 -47 28
-79 28 -46 0 -48 1 -57 41 l-7 26 100 8 c94 6 101 8 125 36 42 51 50 98 50
319 0 226 -7 259 -63 282 -15 7 -39 23 -54 37 -20 17 -42 26 -81 29 -52 4 -53
4 -77 55 -17 36 -36 58 -61 72 -20 11 -47 27 -60 36 -20 14 -36 15 -104 7
-108 -12 -129 -12 -162 4 -28 13 -72 14 -130 2 -49 -9 -96 3 -138 36 -30 24
-48 30 -85 30 -44 0 -48 2 -53 29 -7 34 -50 87 -78 96 -11 4 -32 18 -46 31
-23 22 -35 25 -84 22 -32 -1 -55 -6 -53 -10 5 -8 0 -10 -28 -12 -21 -2 -44
-31 -63 -79 -16 -44 -16 -76 0 -119 6 -14 2 -18 -16 -18 -18 0 -20 -3 -10 -9
17 -11 -42 -15 -304 -25 -151 -6 -183 -9 -196 -24 -17 -18 -49 -133 -49 -177
0 -14 -4 -25 -10 -25 -5 0 -10 -15 -10 -32 0 -41 -32 -218 -40 -218 -3 0 -14
24 -24 53 -55 157 -156 326 -249 417 -31 30 -95 80 -142 110 -48 30 -111 74
-141 98 -83 65 -214 148 -264 168 -25 9 -54 25 -65 34 -11 10 -47 25 -80 35
-33 9 -73 24 -90 34 -16 9 -52 18 -80 19 -27 1 -61 5 -75 7 -85 17 -396 38
-414 27 -4 -2 -54 -5 -110 -6 -91 -1 -116 -6 -251 -49 -82 -27 -163 -50 -179
-52 -15 -2 -43 -16 -61 -30 -19 -14 -39 -25 -45 -25 -23 0 -86 -42 -95 -63 -6
-12 -17 -22 -26 -22 -21 0 -49 -24 -49 -41 0 -8 -4 -14 -9 -14 -20 0 -151
-143 -151 -165 0 -3 -5 -11 -10 -18 -37 -44 -161 -256 -158 -269 2 -7 -9 -40
-24 -73 -35 -80 -78 -323 -58 -335 11 -7 11 -12 -2 -32 -8 -12 -23 -47 -33
-77 -20 -62 -16 -176 10 -237 8 -20 12 -41 9 -46 -4 -6 -2 -13 4 -17 7 -4 8
-19 2 -46 -11 -47 -8 -66 37 -223 19 -67 32 -126 29 -131 -18 -29 -66 26 -80
89 -3 14 -14 35 -26 47 -21 23 -27 38 -10 28 14 -8 13 -1 -6 43 -16 40 -40
126 -55 207 -5 28 -14 61 -20 75 -5 14 -11 41 -13 60 -7 59 -26 163 -41 215
-14 51 -27 123 -47 250 -5 39 -14 79 -19 90 -4 11 -13 66 -18 122 -11 107 -17
136 -51 273 -36 144 -44 170 -52 170 -5 0 -8 8 -8 18 0 10 -9 27 -19 39 -19
20 -19 20 36 36 47 13 60 13 88 1 27 -11 47 -11 133 3 l100 15 22 62 c39 108
204 521 211 526 3 3 9 27 12 54 4 26 18 74 31 105 18 40 26 81 29 144 4 69 11
99 33 145 15 31 31 59 35 62 4 3 13 37 19 75 6 38 24 101 40 139 15 39 33 88
40 108 6 21 20 44 30 51 17 12 18 18 8 49 -9 31 -7 45 17 107 16 39 29 71 29
71 1 0 -1 -57 -2 -127 -3 -85 5 -231 23 -431 26 -283 27 -306 12 -344 -15 -37
-15 -43 0 -72 8 -17 22 -39 30 -48 11 -13 13 -29 6 -75 -4 -32 -7 -67 -5 -78
2 -18 53 -75 67 -75 4 0 21 -11 38 -24 34 -25 75 -37 118 -36 23 0 27 -5 33
-38 4 -26 15 -45 35 -60 17 -12 33 -22 36 -22 4 0 21 -11 38 -24 18 -13 46
-27 62 -31 36 -9 375 -6 390 3 5 4 48 8 95 9 172 5 481 22 491 29 4 2 12 -3
17 -11 7 -14 16 -14 57 -5 67 15 203 19 238 7 20 -6 32 -6 40 2 7 7 60 11 147
11 114 0 147 4 208 24 40 12 77 27 82 32 6 6 15 36 20 67 9 49 9 61 -6 86 -16
28 -16 31 -1 55 22 33 22 44 -8 108 -14 29 -25 70 -25 90 0 53 -16 88 -39 88
-11 0 -31 12 -45 27 -21 23 -36 27 -98 32 l-73 6 -3 45 c-4 53 -13 67 -53 75
-16 4 -29 13 -29 20 0 24 -22 29 -160 38 -164 10 -139 10 -239 -1 l-83 -8 5
44 c2 23 7 46 11 49 9 10 75 5 114 -8 27 -9 47 -9 87 1 41 10 60 10 88 1 24
-8 42 -9 54 -3 10 5 33 7 51 5 46 -7 179 15 223 38 40 20 45 31 55 129 5 54 3
68 -10 79 -22 18 -20 60 3 85 13 14 20 39 22 71 3 47 2 50 -31 69 -19 11 -44
28 -54 38 -19 17 -97 50 -152 64 -22 6 -25 11 -20 35 4 22 1 29 -14 34 -11 4
-33 17 -49 31 -64 54 -190 94 -296 94 -51 0 -66 3 -58 11 17 17 63 20 308 24
121 2 234 5 250 7 17 1 43 -1 58 -5 56 -15 101 67 127 228 7 39 19 96 27 127
l15 57 -48 56 c-26 31 -65 65 -86 76 -21 11 -38 23 -38 28 0 10 -75 42 -88 38
-5 -1 -32 24 -61 56 -29 31 -58 57 -64 57 -6 0 -23 12 -38 26 -23 22 -41 27
-125 37 -55 5 -128 9 -164 7 -103 -5 -167 -5 -295 2 -65 4 -113 3 -106 -1 9
-6 6 -10 -11 -14 -33 -9 -40 -8 -33 3 3 6 -4 10 -17 11 -13 0 -41 2 -63 4 -99
10 -235 13 -230 5 16 -26 -274 -42 -319 -18 -12 6 -42 10 -68 9 l-46 -2 18 48
c10 26 25 49 34 51 24 5 23 106 -1 128 -31 27 -87 63 -129 83 -23 11 -45 24
-48 30 -4 6 -20 8 -36 4 -28 -5 -30 -3 -30 24 0 29 -26 63 -47 63 -6 0 -27 13
-48 30 -20 16 -46 32 -58 36 -12 3 -30 13 -39 21 -14 12 -23 13 -49 4 -41 -14
-45 -14 -64 5 -13 13 -46 17 -183 19 -106 2 -193 10 -236 19 -84 20 -125 20
-173 2 -78 -30 -181 -56 -199 -50 -16 5 -16 4 -4 -5 8 -6 10 -11 4 -11 -19 0
-67 -51 -91 -95 -36 -69 -83 -192 -109 -290 -18 -69 -24 -115 -24 -199 0 -87
-3 -107 -14 -103 -10 4 -15 -9 -20 -51 -9 -86 -62 -289 -87 -334 -5 -10 -9
-28 -9 -40 0 -22 -1 -22 -14 4 -8 15 -12 36 -9 46 2 11 0 23 -6 26 -6 4 -11
19 -11 34 0 38 -25 104 -35 95 -5 -5 -3 0 4 10 11 14 11 23 2 43 -8 19 -8 24
0 18 12 -7 12 -7 -10 64 -7 23 -7 30 1 26 8 -5 9 -1 5 10 -4 10 -10 30 -14 44
-3 15 -10 30 -16 33 -5 4 -5 15 2 28 8 14 8 21 1 21 -14 0 -13 27 3 33 7 3 4
6 -6 6 -10 1 -16 4 -14 9 3 4 -2 54 -10 112 -8 58 -15 119 -16 136 -1 17 -9
40 -17 50 -13 17 -13 18 1 7 13 -11 15 -1 17 92 1 62 -3 105 -8 105 -6 0 -10
28 -9 63 1 59 -18 210 -42 327 -6 30 -12 70 -15 88 -2 18 -6 36 -8 41 -3 5 12
28 33 51 37 41 38 41 44 19 3 -13 9 -61 13 -106 3 -46 10 -83 13 -83 4 0 64
66 133 148 70 81 138 161 153 177 14 17 38 45 52 63 14 17 29 32 33 32 4 0 13
-29 20 -65 7 -36 16 -65 20 -65 4 0 51 61 106 135 54 74 101 134 104 135 3 0
14 -22 25 -50 11 -27 23 -46 26 -42 12 11 339 583 339 591 0 4 -11 18 -25 31
l-25 24 -43 -40 c-23 -21 -68 -63 -99 -94 -32 -30 -58 -52 -58 -49 0 3 34 65
75 137 41 72 75 136 75 141 0 6 -11 18 -25 27 -30 20 -20 26 -163 -111 -115
-111 -135 -115 -164 -39 -16 41 -26 53 -46 58 -15 3 -37 8 -49 12 -18 5 -28
-5 -68 -74 -52 -92 -65 -105 -97 -100 -17 2 -30 17 -47 56 -23 47 -28 52 -58
52 -18 0 -36 0 -40 1 -5 0 -17 -36 -28 -81 l-21 -82 -109 -84 c-131 -100 -157
-127 -151 -157 3 -12 7 -56 11 -98 6 -84 11 -142 26 -293 16 -176 2 -155 -20
29 -4 39 -9 57 -10 41 -1 -37 -10 -30 -15 12 -2 17 1 29 5 26 5 -3 9 2 9 11 0
9 -4 13 -10 10 -6 -4 -10 11 -10 37 -1 24 -7 54 -15 68 -8 14 -14 35 -15 46 0
21 -21 80 -65 184 -13 30 -30 70 -37 88 -7 17 -16 32 -20 32 -5 0 -8 6 -8 13
0 8 -9 22 -20 32 -11 10 -20 26 -20 36 0 10 -11 26 -25 37 -14 11 -25 25 -25
31 0 19 -145 168 -198 203 -15 10 -34 18 -43 18 -9 0 -22 7 -29 15 -7 8 -21
15 -31 15 -11 0 -19 3 -19 8 0 15 -46 35 -119 50 -88 17 -287 25 -316 12z
m360 -288 c47 -26 145 -141 187 -222 25 -47 58 -107 73 -133 22 -39 26 -53 17
-71 -13 -28 7 -140 38 -216 21 -52 27 -83 51 -260 6 -41 14 -100 19 -130 5
-30 13 -86 19 -125 13 -86 27 -165 42 -230 6 -27 15 -124 20 -215 4 -91 13
-187 19 -215 15 -73 45 -289 55 -395 l5 -55 -25 75 c-14 41 -27 93 -30 115 -8
52 -63 230 -86 276 -11 20 -19 52 -19 72 0 47 -36 221 -53 255 -31 61 -30 123
7 255 21 76 20 151 -3 228 -10 35 -28 102 -40 149 -49 188 -65 238 -99 308
-19 40 -54 94 -77 120 -23 26 -58 74 -78 107 -58 94 -99 132 -209 193 -68 38
-109 40 -197 11 -80 -26 -113 -20 -51 9 25 12 65 22 90 22 43 0 57 6 125 54
57 41 145 49 200 18z m-683 -636 c-3 -127 0 -176 12 -217 18 -59 59 -109 91
-109 17 0 23 -10 34 -57 7 -32 19 -68 27 -80 13 -21 12 -23 -33 -43 -52 -23
-53 -22 -73 44 -7 22 -21 59 -31 82 -11 22 -19 48 -19 57 0 10 -9 36 -20 60
-22 46 -38 114 -47 193 -4 40 1 68 26 139 17 49 31 91 31 92 0 2 1 3 3 3 1 0
1 -74 -1 -164z m386 -461 c52 -16 63 -30 40 -53 -18 -18 -35 -15 -41 7 -3 11
-20 29 -38 40 -41 25 -30 26 39 6z m-94 -210 c-13 -54 15 -98 89 -136 32 -17
37 -24 37 -53 0 -28 -3 -33 -18 -30 -9 3 -43 -8 -73 -25 -53 -28 -58 -29 -72
-13 -9 9 -25 38 -36 65 -12 26 -30 67 -41 92 l-19 45 42 21 c23 12 53 30 66
40 31 24 33 24 25 -6z m213 -317 c15 -7 30 -13 32 -15 3 -2 -6 -14 -19 -28
-15 -16 -24 -40 -27 -72 -4 -47 -4 -49 58 -113 35 -36 64 -68 65 -72 1 -5 2
-17 3 -29 1 -22 106 -139 125 -139 6 0 17 -4 24 -9 19 -12 -6 -67 -47 -105
-30 -29 -31 -29 -31 -7 0 12 -11 33 -26 47 -24 25 -30 26 -109 23 l-85 -4 -5
30 c-7 36 -18 68 -55 160 -15 39 -32 89 -37 113 -10 41 -9 43 28 81 25 24 39
48 39 64 0 13 7 30 15 37 8 7 15 21 15 31 0 22 1 23 37 7z m743 -789 c15 -120
27 -201 33 -224 3 -11 7 -51 11 -90 6 -82 4 -76 -45 143 -12 53 -24 270 -15
261 3 -3 11 -44 16 -90z m-536 -28 c9 -10 16 -21 16 -25 0 -4 9 -21 21 -37 19
-26 61 -140 94 -249 7 -25 20 -67 28 -95 8 -27 38 -129 65 -225 28 -96 58
-197 67 -225 47 -134 55 -192 66 -505 17 -491 24 -614 37 -645 8 -16 26 -79
42 -140 33 -128 65 -225 91 -275 43 -83 69 -150 83 -210 8 -36 24 -92 35 -124
14 -39 21 -84 21 -132 0 -64 5 -84 47 -181 26 -59 50 -130 54 -158 4 -27 12
-77 16 -110 5 -33 16 -73 25 -90 53 -100 85 -419 54 -540 -22 -88 -58 -184
-89 -236 -15 -25 -27 -54 -28 -65 0 -10 -7 -35 -14 -54 l-13 -35 -1 37 c-1 44
12 103 46 208 28 85 42 145 50 209 4 33 1 49 -14 70 -20 26 -48 108 -59 171
-4 19 -11 43 -16 53 -7 13 -2 27 22 55 38 46 40 93 5 127 -14 15 -36 25 -53
25 -25 0 -30 6 -45 53 -10 28 -22 69 -26 90 -5 21 -25 71 -45 111 l-37 73 21
44 c11 24 27 55 35 69 43 73 -23 159 -99 130 -14 -5 -28 -5 -31 0 -8 13 -51
167 -64 229 l-11 53 40 44 c30 33 40 52 40 78 0 51 -28 79 -81 82 l-44 2 -7
113 c-3 63 -12 137 -18 164 -14 58 -15 89 -5 127 11 41 -2 76 -34 92 -29 15
-35 31 -86 211 -9 33 -19 68 -21 77 -3 11 18 41 59 85 91 98 107 122 107 158
0 31 -27 66 -61 78 -19 6 -143 -25 -163 -42 -11 -9 -14 -3 -19 31 -3 24 -11
75 -16 113 -6 39 -10 120 -11 180 l0 110 29 17 c38 21 56 78 46 143 -9 64 -43
99 -90 93 -32 -4 -35 -2 -41 28 -3 18 -3 59 0 91 11 103 6 179 -16 236 -12 32
-61 61 -92 54 -18 -4 -27 7 -62 79 l-42 83 27 18 c14 10 37 23 51 29 14 6 36
22 50 35 l25 24 12 -33 c6 -18 18 -41 27 -51z m936 -2243 c0 -6 13 -32 28 -57
52 -84 112 -302 111 -400 l0 -66 -18 50 c-43 120 -50 143 -56 194 -4 30 -16
80 -27 110 -32 94 -57 192 -47 186 5 -4 9 -11 9 -17z m1230 -12 c0 -2 -8 -10
-17 -17 -16 -13 -17 -12 -4 4 13 16 21 21 21 13z m1110 -645 c0 -10 9 -30 20
-43 10 -14 17 -28 13 -31 -3 -4 0 -13 6 -21 10 -12 10 -23 1 -50 -13 -41 -6
-59 20 -51 13 4 26 -4 46 -30 24 -32 26 -40 15 -57 -10 -17 -9 -22 6 -35 17
-13 16 -14 -7 -9 -16 3 -33 -2 -48 -14 -19 -16 -21 -23 -12 -47 8 -24 8 -25
-3 -9 -33 50 -64 78 -134 120 -60 35 -87 46 -120 46 -37 0 -43 3 -43 21 0 16
-5 20 -20 16 -11 -3 -20 -1 -20 3 0 5 17 10 38 12 32 3 37 7 40 31 2 19 9 27
22 27 22 0 40 28 40 64 0 29 11 37 49 40 14 1 38 10 51 19 31 22 40 21 40 -2z
m-2111 -154 c32 -67 38 -91 51 -212 14 -129 25 -167 56 -191 24 -20 28 -32 36
-106 20 -205 51 -350 80 -383 4 -5 8 -24 8 -43 0 -22 10 -46 29 -70 31 -39
141 -248 141 -268 0 -6 21 -47 47 -90 87 -144 96 -185 101 -448 4 -238 -3
-299 -38 -341 -9 -11 -36 -53 -60 -94 -32 -54 -53 -77 -77 -87 -39 -17 -85
-18 -100 -3 -6 6 -42 19 -79 29 l-69 19 66 0 c37 1 82 7 100 15 52 22 104 83
146 171 43 90 44 113 29 395 -10 190 -27 249 -92 322 -28 32 -62 77 -73 101
-12 23 -37 66 -56 96 -37 58 -75 167 -75 214 0 16 -4 46 -9 66 -5 20 -14 70
-20 112 -12 90 -51 236 -132 489 -9 30 -20 78 -23 105 -4 28 -11 79 -16 115
-22 153 -23 163 -12 156 6 -4 24 -35 41 -69z m1841 -711 c5 -5 16 -6 25 -2 14
5 15 9 5 21 -8 10 -9 15 -2 15 6 0 17 -10 23 -22 15 -28 30 -39 46 -33 7 2 15
0 18 -6 4 -5 -1 -12 -9 -15 -22 -8 -20 -23 7 -45 28 -23 44 -24 50 -1 3 11 5
8 6 -8 0 -15 13 -36 29 -50 l28 -24 -25 -62 c-22 -52 -32 -64 -65 -78 -47 -21
-60 -11 -45 34 11 31 10 35 -16 58 -21 18 -25 26 -15 32 10 6 4 18 -23 51 -24
28 -35 49 -32 60 4 13 -3 22 -24 33 -43 22 -47 35 -20 60 20 19 25 20 27 7 2
-9 8 -20 12 -25z m1706 -413 l9 -68 37 -3 c29 -2 37 -8 40 -25 3 -20 10 -22
65 -25 34 -2 93 2 130 8 37 6 76 12 86 13 9 1 17 4 17 7 0 4 14 5 30 2 17 -2
36 0 43 5 6 5 21 8 32 7 11 -1 34 -3 50 -4 17 -2 43 1 58 5 17 4 38 3 53 -4
21 -9 24 -17 24 -58 0 -27 -5 -66 -10 -88 -13 -48 -52 -135 -62 -135 -4 0 -34
-16 -66 -35 -55 -32 -109 -46 -182 -47 -14 0 -28 -5 -31 -10 -5 -8 -32 -7 -87
2 -44 7 -84 10 -89 7 -4 -3 -37 1 -73 9 -36 7 -72 11 -81 8 -9 -2 -39 7 -65
21 -43 23 -71 30 -136 34 -9 1 -24 8 -32 17 -14 14 -18 13 -45 -13 -32 -32
-76 -172 -87 -280 -5 -44 -11 -63 -21 -63 -7 0 -16 8 -19 18 -15 48 -42 86
-71 100 -18 9 -33 18 -32 21 0 3 24 26 52 49 66 56 146 150 154 181 3 14 23
52 45 86 21 34 40 75 42 93 2 17 15 45 30 63 15 17 32 51 38 75 7 23 15 41 20
38 4 -3 8 6 8 20 0 23 4 25 53 29 28 2 55 4 58 5 3 1 10 -28 15 -65z m-2881 7
c3 -5 2 -10 -4 -10 -5 0 -13 5 -16 10 -3 6 -2 10 4 10 5 0 13 -4 16 -10z
m-1088 -462 c-3 -8 -6 -5 -6 6 -1 11 2 17 5 13 3 -3 4 -12 1 -19z m23 -181 c0
-29 29 -79 76 -128 23 -26 50 -63 58 -83 20 -47 160 -209 210 -243 32 -21 126
-63 143 -63 2 0 3 -4 3 -8 0 -4 -20 -13 -44 -20 -24 -6 -57 -23 -74 -37 -40
-33 -51 -28 -157 76 -44 43 -90 85 -101 94 -12 8 -31 34 -43 57 -12 24 -25 50
-30 58 -5 8 -14 40 -21 70 -7 30 -21 82 -31 114 -19 61 -24 111 -13 141 5 13
8 14 15 3 5 -7 9 -21 9 -31z"/>
<path d="M9126 4565 c-10 -15 -16 -28 -14 -30 2 -1 14 -8 27 -15 19 -10 26 -9
37 2 11 11 10 18 -9 42 l-23 28 -18 -27z"/>
<path d="M3335 9600 c-16 -31 -16 -31 35 -88 31 -35 49 -64 47 -74 -3 -11 24
-48 77 -105 44 -49 148 -162 230 -251 82 -89 152 -159 156 -157 5 3 11 27 15
55 l7 49 131 -113 c73 -63 135 -112 140 -109 4 2 7 33 7 69 0 35 2 64 5 64 3
0 105 -74 226 -165 122 -91 223 -164 225 -162 4 3 -61 517 -71 563 -3 14 -19
28 -44 38 -37 14 -40 19 -46 63 -9 65 -12 73 -29 73 -8 0 -54 20 -104 45 -49
25 -95 45 -101 45 -6 0 -11 5 -11 10 0 6 -6 10 -14 10 -8 0 -17 7 -20 16 -3 8
-10 13 -14 10 -5 -3 -25 29 -46 71 l-37 75 -37 -7 c-20 -4 -38 -8 -39 -9 -1
-1 -8 -28 -15 -61 -11 -51 -18 -61 -41 -69 -26 -9 -33 -5 -104 67 l-76 76 -36
-15 c-43 -18 -47 -24 -55 -86 -5 -38 -12 -51 -30 -59 -27 -13 -12 -20 -246
124 -34 20 -63 37 -65 37 -3 0 -12 -14 -20 -30z"/>
<path d="M6411 9614 c0 -11 3 -14 6 -6 3 7 2 16 -1 19 -3 4 -6 -2 -5 -13z"/>
<path d="M1390 8900 c-36 -3 -75 -12 -87 -18 -30 -17 -69 -15 -87 3 -21 21
-267 20 -308 -1 -15 -8 -34 -11 -42 -8 -9 3 -33 -2 -53 -13 -61 -31 -102 -29
-151 6 -47 35 -64 38 -83 15 -9 -11 -22 -14 -41 -10 -24 5 -90 -16 -108 -34
-3 -3 -11 -6 -18 -8 -22 -4 -71 -44 -77 -62 -3 -9 -9 -72 -15 -141 -5 -68 -14
-139 -21 -157 -10 -29 -9 -36 10 -56 26 -27 28 -85 6 -150 -15 -44 -15 -47 10
-95 14 -28 25 -58 25 -68 0 -10 -16 -58 -35 -108 -34 -90 -34 -90 -12 -95 17
-4 23 -14 25 -40 2 -19 10 -51 19 -70 32 -68 27 -260 -6 -260 -6 0 -26 14 -44
30 -29 25 -43 30 -85 30 -43 0 -55 -5 -81 -30 -31 -32 -58 -106 -68 -191 -7
-62 13 -140 39 -147 14 -3 16 -8 8 -17 -8 -10 -8 -19 2 -34 17 -27 26 -27 31
2 3 16 5 13 6 -10 1 -32 21 -49 21 -19 0 8 5 18 10 21 7 4 9 -2 5 -18 -5 -20
-1 -29 23 -46 37 -26 42 -26 42 -1 0 21 7 25 28 12 7 -5 10 -16 6 -27 -6 -15
-4 -17 19 -11 49 12 52 -9 52 -334 l0 -295 -43 4 c-74 6 -130 -27 -157 -92
-23 -55 -20 -113 8 -141 13 -13 22 -27 20 -32 -5 -17 52 -42 72 -32 14 9 16 7
11 -10 -5 -16 0 -24 25 -36 39 -20 39 -20 39 -1 0 8 7 15 16 15 10 0 14 -6 11
-14 -3 -8 2 -16 14 -19 17 -5 19 -15 19 -104 l1 -98 52 -43 c110 -90 130 -103
162 -100 16 1 33 7 37 13 5 6 8 4 8 -5 0 -9 -16 -22 -37 -29 -57 -20 -123 -88
-123 -127 0 -27 8 -36 64 -72 78 -51 110 -64 144 -57 l27 5 -24 -12 -23 -12
33 -11 c20 -7 36 -20 39 -33 3 -12 35 -42 75 -68 56 -38 79 -47 113 -47 23 0
42 -4 42 -9 0 -4 -10 -8 -22 -8 -38 -1 3 -19 58 -27 41 -5 47 -4 41 10 -4 11
-1 17 7 17 8 0 16 -9 19 -20 4 -15 14 -20 37 -20 17 0 29 4 25 9 -7 13 33 18
67 10 15 -4 30 -3 34 2 3 5 10 7 15 3 6 -4 6 -11 -2 -20 -10 -12 -4 -14 34
-14 50 0 77 7 77 21 0 5 -7 9 -15 9 -8 0 -15 3 -15 8 0 4 30 8 66 8 36 1 61
-2 54 -6 -6 -4 -23 -5 -38 -2 -15 3 -24 1 -20 -3 4 -5 3 -14 -3 -22 -15 -17
19 -17 107 -1 59 11 87 28 47 28 -15 0 -16 2 -3 10 9 6 17 5 21 -2 11 -17 75
0 109 28 26 22 30 33 30 73 0 26 -6 55 -12 64 -22 29 -152 107 -195 119 -24 6
-43 14 -43 19 0 12 70 15 109 6 23 -6 74 -3 152 9 109 16 121 16 167 0 28 -9
58 -16 67 -16 20 0 99 73 126 117 24 39 24 37 -5 458 -11 150 -12 201 -3 207
6 4 15 2 18 -4 4 -6 15 -8 24 -4 12 4 16 2 12 -8 -5 -13 10 -36 24 -36 4 0 10
8 12 18 4 13 5 11 6 -5 1 -22 21 -34 21 -13 0 6 9 10 20 10 13 0 18 -5 14 -15
-4 -11 1 -15 17 -15 17 0 28 -10 39 -33 8 -18 21 -31 29 -29 11 2 12 0 3 -11
-9 -10 -9 -16 0 -25 17 -17 26 -15 31 6 3 12 5 10 6 -7 1 -19 5 -22 22 -18 15
4 19 2 15 -8 -2 -7 2 -19 10 -26 13 -10 17 -10 25 2 7 11 9 11 9 -3 0 -10 5
-18 10 -18 6 0 10 5 10 10 0 6 9 10 20 10 13 0 18 -5 14 -15 -4 -11 0 -15 16
-15 19 0 21 4 15 33 -4 20 -3 27 3 19 7 -11 12 -10 26 3 9 10 19 15 22 12 3
-3 -3 -12 -15 -19 -22 -13 -29 -48 -10 -48 6 0 29 17 50 39 38 37 39 41 39
106 0 83 -20 129 -69 156 -20 10 -48 29 -63 40 -16 13 -46 24 -77 27 -38 3
-51 9 -51 21 0 28 -39 81 -67 93 -16 7 -41 23 -56 37 -24 22 -37 26 -88 25
-33 -1 -66 -7 -72 -13 -6 -6 -14 -11 -18 -11 -10 0 7 58 21 75 16 19 139 57
159 50 33 -13 200 -16 223 -4 13 7 56 11 103 10 77 -2 83 -1 120 29 22 17 46
38 52 47 18 23 19 15 37 -217 19 -240 21 -399 5 -434 -9 -19 -8 -34 7 -71 9
-26 24 -53 31 -61 12 -12 12 -29 1 -109 l-12 -95 -37 0 c-72 0 -125 -38 -160
-114 -35 -78 -16 -209 28 -192 11 4 13 1 8 -14 -4 -12 0 -26 9 -35 19 -19 24
-19 29 3 4 14 5 13 6 -4 0 -11 14 -30 31 -42 35 -27 40 -27 41 -4 1 11 3 9 8
-7 4 -14 13 -27 20 -29 10 -3 12 0 8 11 -3 9 -1 18 6 20 19 6 47 -4 41 -15 -3
-5 6 -25 21 -44 21 -28 30 -33 37 -23 6 10 7 7 3 -9 -6 -22 8 -52 25 -52 5 0
11 8 13 18 4 15 5 15 6 -2 1 -18 47 -66 64 -66 4 0 7 8 8 18 1 11 3 9 8 -7 8
-29 34 -42 29 -15 -2 11 3 19 10 18 45 -4 45 -4 32 -19 -11 -13 -9 -15 13 -15
25 0 44 25 27 35 -6 4 -10 14 -10 23 0 12 3 13 8 5 11 -18 48 -9 44 10 -2 11
2 15 12 11 19 -7 10 -31 -14 -39 -23 -7 -34 -45 -14 -45 8 0 26 7 40 16 20 14
22 19 12 32 -11 13 -10 14 10 8 19 -6 25 -2 38 30 16 38 16 172 1 204 -6 13
16 16 170 19 126 2 182 7 197 16 17 11 31 11 68 3 39 -9 55 -8 88 5 23 9 42
11 46 6 3 -5 10 -6 16 -3 6 4 59 8 117 10 58 1 113 5 121 8 35 13 105 11 116
-4 10 -12 19 -12 65 0 67 17 174 20 216 6 24 -7 36 -7 45 2 8 8 55 12 145 12
118 0 138 3 185 24 29 13 63 27 75 30 15 5 26 20 33 44 15 55 13 143 -4 161
-13 14 -12 22 5 60 l20 44 -26 76 c-32 97 -32 103 1 91 30 -12 45 -13 41 -2
-1 4 1 8 6 10 17 5 27 1 27 -13 0 -20 20 -19 36 3 13 16 14 16 8 0 -7 -21 -3
-22 31 -6 15 7 24 17 21 25 -3 8 -2 12 3 9 4 -3 17 4 27 15 15 16 19 36 18 88
0 80 -22 126 -75 156 -19 11 -51 30 -70 42 -20 14 -50 23 -72 23 -27 0 -39 5
-43 18 -12 41 -32 68 -74 99 -67 50 -99 61 -155 57 -61 -6 -107 -45 -125 -109
l-12 -43 -101 4 c-56 1 -117 6 -135 10 -19 4 -38 2 -46 -5 -7 -6 -43 -10 -80
-9 l-67 2 7 60 c13 114 23 122 123 89 41 -13 56 -14 77 -5 32 15 97 15 111 1
7 -7 20 -8 34 -3 13 4 49 8 79 9 91 2 153 16 197 47 40 27 43 32 44 76 0 26 4
69 8 97 7 42 6 54 -10 74 -25 31 -24 72 1 104 15 19 20 40 20 89 l0 63 -82 53
c-45 29 -104 60 -130 70 -26 9 -47 21 -47 27 3 26 -5 35 -66 74 -109 71 -162
90 -262 97 l-91 7 10 31 c6 17 14 35 19 40 12 13 70 17 237 16 117 -1 152 2
152 11 0 10 3 10 12 1 15 -15 61 -15 111 -1 24 6 49 7 72 0 30 -8 37 -6 59 15
28 28 58 134 76 264 6 47 18 114 26 148 l14 64 -50 71 c-27 39 -65 80 -84 91
-19 12 -46 30 -61 41 -15 10 -42 19 -59 19 -27 0 -37 8 -69 53 -23 33 -51 59
-72 68 -19 7 -35 18 -35 23 0 24 -132 46 -245 43 -153 -6 -589 4 -604 13 -23
14 -151 13 -179 -2 -28 -14 -36 -15 -179 -28 -66 -5 -87 -4 -106 8 -20 14 -37
14 -147 1 -69 -7 -150 -20 -180 -28 -30 -8 -55 -13 -55 -12 -1 1 -10 27 -21
57 -18 51 -25 59 -99 107 -67 44 -85 52 -112 47 -29 -6 -32 -3 -51 38 -14 33
-35 55 -83 88 l-64 44 -120 3 c-66 1 -132 8 -148 14 -17 7 -48 9 -80 5 -28 -4
-81 -6 -117 -6 -128 2 -256 3 -304 2 -29 -1 -57 4 -65 12 -21 18 -82 24 -161
16z m1324 -1006 c21 -8 21 -75 0 -185 -15 -82 -15 -84 7 -129 17 -33 24 -65
26 -120 l2 -75 -17 37 c-12 26 -22 36 -33 33 -9 -3 -24 7 -38 26 -14 19 -28
28 -38 25 -9 -4 -23 4 -35 20 -14 18 -27 24 -42 20 -27 -6 -58 19 -75 62 -10
23 -18 31 -30 27 -11 -3 -25 6 -40 26 -13 17 -29 28 -36 25 -8 -3 -23 6 -35
21 -14 18 -26 24 -42 20 -13 -4 -29 0 -40 10 -26 23 -142 14 -163 -12 -14 -19
-14 -19 -15 5 0 13 10 48 21 76 24 58 14 54 187 70 63 6 72 4 72 -10 0 -9 8
-16 18 -16 47 0 308 34 317 41 11 11 9 11 29 3z"/>
<path d="M10719 8847 c-44 -29 -69 -80 -69 -140 0 -56 13 -87 37 -87 13 0 14
-3 6 -11 -9 -9 -8 -15 3 -27 13 -13 12 -16 -8 -26 -13 -7 -50 -20 -83 -30 -73
-23 -92 -38 -118 -96 -18 -38 -22 -73 -27 -225 -5 -139 -12 -204 -30 -282 -22
-94 -23 -104 -8 -120 28 -30 32 -69 10 -84 -21 -16 -21 -14 -3 -349 6 -107 14
-288 18 -401 6 -202 6 -208 -16 -243 -19 -30 -21 -39 -10 -52 10 -12 7 -25
-16 -73 -27 -57 -27 -60 -12 -102 10 -27 18 -97 22 -184 3 -77 10 -158 15
-179 6 -29 5 -44 -6 -61 -14 -22 -12 -25 33 -64 26 -22 53 -41 59 -41 6 0 21
-11 34 -25 19 -20 33 -25 75 -25 59 0 68 -5 55 -30 -8 -14 -1 -26 35 -59 25
-23 49 -41 54 -41 5 0 23 -11 38 -24 26 -22 42 -25 127 -30 54 -3 104 -10 111
-16 9 -7 15 -8 20 -1 4 7 19 5 43 -5 66 -29 111 -38 135 -26 42 19 155 32 289
32 l134 0 19 38 c11 20 20 44 21 52 0 9 7 26 13 39 15 27 16 167 1 205 -7 18
-5 43 4 84 8 31 15 51 15 45 1 -7 8 -13 16 -13 8 0 17 -11 21 -25 3 -14 10
-25 15 -25 5 0 9 -9 9 -20 0 -12 9 -38 20 -60 23 -44 142 -131 208 -151 24 -7
44 -20 50 -34 18 -38 142 -124 218 -150 74 -25 249 -30 367 -11 88 15 100 15
121 1 21 -14 24 -14 30 1 6 16 7 16 19 0 11 -16 15 -16 49 -1 21 8 61 15 90
15 33 0 62 6 76 16 13 9 30 13 38 10 20 -8 62 13 69 35 7 22 -122 282 -135
274 -6 -3 -10 1 -10 10 0 26 -52 124 -81 153 -42 42 -160 248 -153 266 4 10 1
16 -8 16 -17 0 -74 120 -83 173 -4 26 -11 37 -23 37 -18 0 -76 87 -87 130 -5
21 2 31 38 61 24 20 72 51 108 69 35 18 85 47 111 66 26 18 54 31 61 28 25 -9
134 149 150 217 5 17 13 26 24 25 16 -1 19 13 24 134 3 74 9 143 13 152 5 11
0 28 -16 50 -14 18 -30 57 -36 87 -31 137 -150 309 -243 348 -16 7 -32 19 -35
28 -3 8 -13 15 -21 15 -19 0 -132 78 -156 108 -10 12 -24 22 -31 22 -7 0 -24
10 -38 23 -14 12 -43 31 -64 43 -22 12 -77 44 -124 73 -47 28 -116 67 -155 86
-59 30 -75 34 -102 26 -18 -5 -48 -6 -70 -1 -58 13 -195 33 -218 32 -11 0 -40
-1 -65 -2 -31 -2 -64 6 -105 25 -55 25 -63 26 -116 16 -39 -8 -65 -8 -83 -1
-15 5 -60 8 -101 6 -66 -3 -75 -1 -80 15 -4 11 -23 28 -43 39 -20 11 -49 30
-64 41 -16 13 -46 24 -76 27 -47 4 -50 6 -61 43 -12 40 -20 48 -111 105 -66
42 -120 45 -171 11z"/>
<path d="M6688 7703 c7 -3 16 -2 19 1 4 3 -2 6 -13 5 -11 0 -14 -3 -6 -6z"/>
<path d="M7530 3749 c0 -5 5 -7 10 -4 6 3 10 8 10 11 0 2 -4 4 -10 4 -5 0 -10
-5 -10 -11z"/>
<path d="M7780 3320 c0 -5 5 -10 11 -10 5 0 7 5 4 10 -3 6 -8 10 -11 10 -2 0
-4 -4 -4 -10z"/>
<path d="M7786 3292 c-3 -6 -1 -14 5 -17 14 -9 20 -2 10 14 -6 8 -11 9 -15 3z"/>
<path d="M13543 1729 l-52 -44 51 -3 c27 -2 52 -1 55 1 2 3 3 24 1 47 l-3 43
-52 -44z"/>
</g>
</svg>
